<svg preserveAspectRatio="none" overflow="visible" style="display: block;" width="358.195" height="343.922" viewBox="0 0 358.195 343.922" fill="none" xmlns="http://www.w3.org/2000/svg">
<g id="Frame 2147242569">
<path id="Star 1" d="M135.828 37.6181C147.442 -4.5082 207.182 -4.5082 218.795 37.6181L227.18 68.0312C232.766 88.2941 251.627 101.998 272.624 101.049L304.14 99.624C347.793 97.651 366.253 154.468 329.778 178.53L303.444 195.902C285.899 207.476 278.694 229.649 286.085 249.325L297.179 278.859C312.545 319.766 264.214 354.88 230.058 327.626L205.398 307.948C188.968 294.839 165.655 294.839 149.226 307.948L124.566 327.626C90.4093 354.88 42.0791 319.766 57.4446 278.859L68.5384 249.325C75.9292 229.649 68.7249 207.476 51.18 195.902L24.846 178.53C-11.6297 154.468 6.83077 97.6514 50.4837 99.624L82.0003 101.049C102.998 101.998 121.859 88.2941 127.445 68.0312L135.828 37.6181Z" stroke="#D5E5E5" stroke-opacity="0.4" stroke-width="2"/>
</g>
</svg>
