<svg preserveAspectRatio="none" overflow="visible" style="display: block;" width="20" height="20" viewBox="0 0 20 20" fill="none" xmlns="http://www.w3.org/2000/svg">
<g id="Frame">
<path id="Vector" fill-rule="evenodd" clip-rule="evenodd" d="M4.23223 4.22409C7.39502 1.06577 12.5364 1.09936 15.7185 4.28148C18.902 7.46498 18.9343 12.6094 15.7718 15.7718C12.6093 18.9343 7.46494 18.902 4.28145 15.7185C2.39491 13.832 1.61587 11.2582 1.95039 8.81767C1.99727 8.47567 2.3125 8.23647 2.65447 8.28335C2.99646 8.33022 3.23568 8.64542 3.18882 8.98742C2.9055 11.0543 3.56485 13.2342 5.16533 14.8347C7.86907 17.5384 12.222 17.5538 14.8879 14.8879C17.5538 12.222 17.5383 7.8691 14.8346 5.16537C12.1323 2.46301 7.78241 2.44616 5.11612 5.10797L5.73921 5.11111C6.08438 5.11284 6.36279 5.39407 6.36106 5.73924C6.35932 6.08442 6.0781 6.36282 5.73292 6.36109L3.61163 6.35043C3.26891 6.34871 2.99151 6.0713 2.98978 5.72858L2.97912 3.60728C2.97738 3.26212 3.2558 2.98089 3.60097 2.97915C3.94615 2.97742 4.22737 3.25583 4.22911 3.60101L4.23223 4.22409ZM9.99992 6.0416C10.3451 6.0416 10.6249 6.32142 10.6249 6.6666V9.74108L12.5252 11.6413C12.7692 11.8854 12.7692 12.2812 12.5252 12.5252C12.2811 12.7692 11.8853 12.7692 11.6413 12.5252L9.37492 10.2588V6.6666C9.37492 6.32142 9.65475 6.0416 9.99992 6.0416Z" fill="#515B60"/>
</g>
</svg>
